<svg width="32" height="44" viewBox="0 0 32 44" fill="none" xmlns="http://www.w3.org/2000/svg">
<path d="M19.0409 16.3632V16.3631C19.0409 15.7491 18.8628 15.1487 18.5288 14.6378C18.1949 14.127 17.72 13.7285 17.164 13.493C16.6079 13.2576 15.9959 13.196 15.4055 13.316C14.815 13.4361 14.273 13.7323 13.8478 14.167C13.4225 14.6016 13.1332 15.1551 13.016 15.7574C12.8988 16.3596 12.9589 16.9839 13.1889 17.5513C13.4188 18.1188 13.8084 18.6041 14.3086 18.9458C14.8089 19.2874 15.3972 19.4699 15.9993 19.4699V19.3723L15.9994 19.4699C16.8065 19.469 17.5798 19.1408 18.1498 18.5582C18.7197 17.9756 19.04 17.1862 19.0409 16.3632ZM12.7832 11.4396C13.7353 10.7894 14.8545 10.4424 15.9992 10.4424C17.5337 10.4442 19.0052 11.068 20.0909 12.1778C21.1767 13.2876 21.7878 14.7928 21.7896 16.3632C21.7895 17.5346 21.4497 18.6796 20.8132 19.6533C20.1767 20.627 19.2722 21.3856 18.2144 21.8334C17.1566 22.2813 15.9928 22.3984 14.87 22.1701C13.7473 21.9418 12.7156 21.3783 11.9057 20.5504C11.0957 19.7225 10.5439 18.6675 10.3203 17.5186C10.0967 16.3696 10.2115 15.1788 10.65 14.0966C11.0885 13.0145 11.831 12.09 12.7832 11.4396Z" fill="#F8F8F8" stroke="#4F4F4F" stroke-width="0.195312"/>
<path d="M15.917 40.8569L15.9994 40.9862L16.0817 40.8569L27.0219 23.6905C30.3949 18.3978 29.6719 11.3156 25.3017 6.84833C24.0803 5.59986 22.6302 4.6094 21.034 3.93361C19.4379 3.25781 17.7271 2.90996 15.9994 2.90996C14.2716 2.90996 12.5608 3.25781 10.9647 3.93361C9.36856 4.6094 7.91844 5.59986 6.69705 6.84833C2.32678 11.3156 1.6037 18.3978 4.97672 23.6905L15.917 40.8569ZM16.8263 0.119591C20.7519 0.328192 24.4632 2.01574 27.2437 4.85715C29.823 7.49355 31.4376 10.9564 31.8164 14.6655C32.1951 18.3745 31.315 22.1037 29.3239 25.2281L18.2002 42.6825C17.9613 43.0574 17.6348 43.3651 17.2505 43.578C16.8662 43.7909 16.4362 43.9023 15.9993 43.9023C15.5625 43.9023 15.1324 43.7909 14.7481 43.578C14.3638 43.3651 14.0374 43.0574 13.7985 42.6825L2.67511 25.2281C0.529201 21.86 -0.320246 17.7986 0.291051 13.8277C0.902345 9.85684 2.93092 6.25865 5.98465 3.72734C9.03831 1.19608 12.9007 -0.0890099 16.8263 0.119591Z" fill="#F8F8F8" stroke="#4F4F4F" stroke-width="0.195312"/>
</svg>
