<svg width="434" height="434" viewBox="0 0 434 434" fill="none" xmlns="http://www.w3.org/2000/svg">
<g filter="url(#filter0_f_3_50)">
<path fill-rule="evenodd" clip-rule="evenodd" d="M408.209 242.076C380.5 269.368 342.466 286.209 300.5 286.209C215.724 286.209 147 217.485 147 132.709C147 90.7428 163.841 52.7098 191.134 25C97.2936 37.8534 25 118.339 25 215.709C25 322.024 111.185 408.209 217.5 408.209C314.87 408.209 395.356 335.916 408.209 242.076Z" fill="url(#paint0_radial_3_50)"/>
</g>
<path fill-rule="evenodd" clip-rule="evenodd" d="M408.209 242.075C380.499 269.368 342.466 286.209 300.5 286.209C215.724 286.209 147 217.485 147 132.709C147 90.7428 163.841 52.7098 191.134 25C97.2936 37.8534 25 118.339 25 215.709C25 322.024 111.185 408.209 217.5 408.209C314.87 408.209 395.356 335.916 408.209 242.075Z" fill="url(#paint1_radial_3_50)"/>
<defs>
<filter id="filter0_f_3_50" x="0" y="0" width="433.209" height="433.209" filterUnits="userSpaceOnUse" color-interpolation-filters="sRGB">
<feFlood flood-opacity="0" result="BackgroundImageFix"/>
<feBlend mode="normal" in="SourceGraphic" in2="BackgroundImageFix" result="shape"/>
<feGaussianBlur stdDeviation="12.5" result="effect1_foregroundBlur_3_50"/>
</filter>
<radialGradient id="paint0_radial_3_50" cx="0" cy="0" r="1" gradientUnits="userSpaceOnUse" gradientTransform="translate(216.605 216.605) rotate(132.061) scale(231.529)">
<stop stop-color="#FDEA02"/>
<stop offset="1" stop-color="#FFD500"/>
</radialGradient>
<radialGradient id="paint1_radial_3_50" cx="0" cy="0" r="1" gradientUnits="userSpaceOnUse" gradientTransform="translate(216.605 216.605) rotate(132.061) scale(231.529)">
<stop stop-color="#FDEA02"/>
<stop offset="1" stop-color="#FFD500"/>
</radialGradient>
</defs>
</svg>
