<svg width="490" height="313" viewBox="0 0 490 313" fill="none" xmlns="http://www.w3.org/2000/svg">
<g filter="url(#filter0_f_5_177)">
<circle cx="354.5" cy="135.5" r="100.5" fill="url(#paint0_linear_5_177)"/>
</g>
<circle cx="354.5" cy="135.5" r="100.5" fill="url(#paint1_linear_5_177)"/>
<g filter="url(#filter1_b_5_177)">
<mask id="path-3-inside-1_5_177" fill="white">
<path fill-rule="evenodd" clip-rule="evenodd" d="M363 312.999C413.856 312.73 455 271.42 455 220.5C455 169.414 413.586 128 362.5 128C357.32 128 352.24 128.426 347.292 129.244C339.482 103.632 315.667 85 287.5 85C274.495 85 262.417 88.9723 252.414 95.7698C239.466 60.3123 205.439 35 165.5 35C114.414 35 73 76.4137 73 127.5C73 128.353 73.0116 129.204 73.0345 130.052C31.295 138.991 0 176.091 0 220.5C0 271.42 41.1437 312.73 92 312.999V313H92.5H362.5H363V312.999Z"/>
</mask>
<path fill-rule="evenodd" clip-rule="evenodd" d="M363 312.999C413.856 312.73 455 271.42 455 220.5C455 169.414 413.586 128 362.5 128C357.32 128 352.24 128.426 347.292 129.244C339.482 103.632 315.667 85 287.5 85C274.495 85 262.417 88.9723 252.414 95.7698C239.466 60.3123 205.439 35 165.5 35C114.414 35 73 76.4137 73 127.5C73 128.353 73.0116 129.204 73.0345 130.052C31.295 138.991 0 176.091 0 220.5C0 271.42 41.1437 312.73 92 312.999V313H92.5H362.5H363V312.999Z" fill="url(#paint2_linear_5_177)"/>
<path d="M363 312.999L362.989 310.999L361 311.009V312.999H363ZM347.292 129.244L345.379 129.828L345.89 131.503L347.618 131.217L347.292 129.244ZM252.414 95.7698L250.536 96.4558L251.416 98.8664L253.538 97.424L252.414 95.7698ZM73.0345 130.052L73.4534 132.007L75.0788 131.659L75.0338 129.998L73.0345 130.052ZM92 312.999H94V311.009L92.0106 310.999L92 312.999ZM92 313H90V315H92V313ZM363 313V315H365V313H363ZM363.011 314.999C414.967 314.724 457 272.521 457 220.5H453C453 270.319 412.746 310.735 362.989 310.999L363.011 314.999ZM457 220.5C457 168.309 414.691 126 362.5 126V130C412.482 130 453 170.518 453 220.5H457ZM362.5 126C357.21 126 352.021 126.435 346.965 127.271L347.618 131.217C352.459 130.417 357.43 130 362.5 130V126ZM349.205 128.661C341.145 102.231 316.571 83 287.5 83V87C314.762 87 337.818 105.034 345.379 129.828L349.205 128.661ZM287.5 83C274.081 83 261.614 87.0999 251.29 94.1156L253.538 97.424C263.22 90.8447 274.908 87 287.5 87V83ZM254.293 95.0838C241.066 58.8625 206.306 33 165.5 33V37C204.572 37 237.866 61.762 250.536 96.4558L254.293 95.0838ZM165.5 33C113.309 33 71 75.3091 71 127.5H75C75 77.5182 115.518 37 165.5 37V33ZM71 127.5C71 128.371 71.0118 129.24 71.0352 130.106L75.0338 129.998C75.0113 129.168 75 128.335 75 127.5H71ZM72.6157 128.096C29.9731 137.229 -2 175.128 -2 220.5H2C2 177.054 32.617 140.754 73.4534 132.007L72.6157 128.096ZM-2 220.5C-2 272.521 40.0333 314.724 91.9894 314.999L92.0106 310.999C42.2541 310.735 2 270.319 2 220.5H-2ZM94 313V312.999H90V313H94ZM92.5 311H92V315H92.5V311ZM362.5 311H92.5V315H362.5V311ZM363 311H362.5V315H363V311ZM361 312.999V313H365V312.999H361Z" fill="url(#paint3_linear_5_177)" fill-opacity="0.5" mask="url(#path-3-inside-1_5_177)"/>
</g>
<defs>
<filter id="filter0_f_5_177" x="219" y="0" width="271" height="271" filterUnits="userSpaceOnUse" color-interpolation-filters="sRGB">
<feFlood flood-opacity="0" result="BackgroundImageFix"/>
<feBlend mode="normal" in="SourceGraphic" in2="BackgroundImageFix" result="shape"/>
<feGaussianBlur stdDeviation="17.5" result="effect1_foregroundBlur_5_177"/>
</filter>
<filter id="filter1_b_5_177" x="-25" y="10" width="505" height="328" filterUnits="userSpaceOnUse" color-interpolation-filters="sRGB">
<feFlood flood-opacity="0" result="BackgroundImageFix"/>
<feGaussianBlur in="BackgroundImage" stdDeviation="12.5"/>
<feComposite in2="SourceAlpha" operator="in" result="effect1_backgroundBlur_5_177"/>
<feBlend mode="normal" in="SourceGraphic" in2="effect1_backgroundBlur_5_177" result="shape"/>
</filter>
<linearGradient id="paint0_linear_5_177" x1="254" y1="35" x2="455" y2="236" gradientUnits="userSpaceOnUse">
<stop stop-color="#F9CC5F"/>
<stop offset="1" stop-color="#FEA119"/>
</linearGradient>
<linearGradient id="paint1_linear_5_177" x1="254" y1="35" x2="455" y2="236" gradientUnits="userSpaceOnUse">
<stop stop-color="#F9CC5F"/>
<stop offset="1" stop-color="#FEA119"/>
</linearGradient>
<linearGradient id="paint2_linear_5_177" x1="0" y1="35" x2="455" y2="313" gradientUnits="userSpaceOnUse">
<stop stop-color="white" stop-opacity="0.5"/>
<stop offset="1" stop-color="white" stop-opacity="0"/>
</linearGradient>
<linearGradient id="paint3_linear_5_177" x1="227.5" y1="35" x2="227.5" y2="313" gradientUnits="userSpaceOnUse">
<stop stop-color="white" stop-opacity="0"/>
<stop offset="1" stop-color="white" stop-opacity="0.5"/>
</linearGradient>
</defs>
</svg>
