<svg width="471" height="404" viewBox="0 0 471 404" fill="none" xmlns="http://www.w3.org/2000/svg">
<g filter="url(#filter0_b_5_468)">
<mask id="path-1-inside-1_5_468" fill="white">
<path fill-rule="evenodd" clip-rule="evenodd" d="M309.234 142.848C309.225 142.848 309.217 142.848 309.209 142.848C309.2 142.848 309.192 142.848 309.183 142.848H308.986V142.848C286.329 142.728 268 124.324 268 101.64C268 81.8557 281.942 65.328 300.537 61.3453C300.526 60.9676 300.521 60.5887 300.521 60.2085C300.521 37.4497 318.971 19 341.73 19C359.523 19 374.682 30.2766 380.45 46.0728C384.906 43.0445 390.287 41.2749 396.081 41.2749C408.629 41.2749 419.238 49.5756 422.718 60.9856C424.922 60.621 427.185 60.4313 429.493 60.4313C452.252 60.4313 470.701 78.881 470.701 101.64C470.701 124.324 452.372 142.728 429.716 142.848V142.848H429.493H309.234Z"/>
</mask>
<path fill-rule="evenodd" clip-rule="evenodd" d="M309.234 142.848C309.225 142.848 309.217 142.848 309.209 142.848C309.2 142.848 309.192 142.848 309.183 142.848H308.986V142.848C286.329 142.728 268 124.324 268 101.64C268 81.8557 281.942 65.328 300.537 61.3453C300.526 60.9676 300.521 60.5887 300.521 60.2085C300.521 37.4497 318.971 19 341.73 19C359.523 19 374.682 30.2766 380.45 46.0728C384.906 43.0445 390.287 41.2749 396.081 41.2749C408.629 41.2749 419.238 49.5756 422.718 60.9856C424.922 60.621 427.185 60.4313 429.493 60.4313C452.252 60.4313 470.701 78.881 470.701 101.64C470.701 124.324 452.372 142.728 429.716 142.848V142.848H429.493H309.234Z" fill="url(#paint0_linear_5_468)"/>
<path d="M308.986 142.848H306.986V144.848H308.986V142.848ZM308.986 142.848H310.986V140.858L308.996 140.848L308.986 142.848ZM300.537 61.3453L300.956 63.301L302.581 62.9528L302.536 61.2912L300.537 61.3453ZM380.45 46.0728L378.571 46.7588L379.452 49.1694L381.574 47.727L380.45 46.0728ZM422.718 60.9856L420.805 61.5689L421.316 63.2447L423.044 62.9588L422.718 60.9856ZM429.716 142.848L429.705 140.848L427.716 140.858V142.848H429.716ZM429.716 142.848V144.848H431.716V142.848H429.716ZM309.209 144.848C309.213 144.848 309.218 144.848 309.222 144.848C309.226 144.848 309.23 144.848 309.234 144.848V140.848C309.229 140.848 309.224 140.848 309.22 140.848C309.216 140.848 309.212 140.848 309.209 140.848V144.848ZM309.183 144.848C309.187 144.848 309.191 144.848 309.195 144.848C309.199 144.848 309.204 144.848 309.209 144.848V140.848C309.205 140.848 309.201 140.848 309.197 140.848C309.193 140.848 309.188 140.848 309.183 140.848V144.848ZM309.183 140.848H308.986V144.848H309.183V140.848ZM310.986 142.848V142.848H306.986V142.848H310.986ZM266 101.64C266 125.425 285.219 144.722 308.975 144.848L308.996 140.848C287.44 140.734 270 123.223 270 101.64H266ZM300.118 59.3897C280.62 63.5657 266 80.8931 266 101.64H270C270 82.8184 283.264 67.0902 300.956 63.301L300.118 59.3897ZM298.521 60.2085C298.521 60.6067 298.527 61.0037 298.537 61.3995L302.536 61.2912C302.526 60.9315 302.521 60.5706 302.521 60.2085H298.521ZM341.73 17C317.866 17 298.521 36.3451 298.521 60.2085H302.521C302.521 38.5543 320.076 21 341.73 21V17ZM382.329 45.3868C376.281 28.8268 360.389 17 341.73 17V21C358.656 21 373.082 31.7263 378.571 46.7588L382.329 45.3868ZM396.081 39.2749C389.873 39.2749 384.103 41.1722 379.326 44.4186L381.574 47.727C385.709 44.9169 390.7 43.2749 396.081 43.2749V39.2749ZM424.631 60.4022C420.902 48.1743 409.533 39.2749 396.081 39.2749V43.2749C407.724 43.2749 417.575 50.9769 420.805 61.5689L424.631 60.4022ZM429.493 58.4313C427.075 58.4313 424.703 58.63 422.391 59.0124L423.044 62.9588C425.141 62.6119 427.295 62.4313 429.493 62.4313V58.4313ZM472.701 101.64C472.701 77.7764 453.356 58.4313 429.493 58.4313V62.4313C451.147 62.4313 468.701 79.9855 468.701 101.64H472.701ZM429.726 144.848C453.482 144.722 472.701 125.425 472.701 101.64H468.701C468.701 123.223 451.262 140.734 429.705 140.848L429.726 144.848ZM427.716 142.848V142.848H431.716V142.848H427.716ZM429.716 140.848H429.493V144.848H429.716V140.848ZM429.493 140.848H309.234V144.848H429.493V140.848Z" fill="url(#paint1_linear_5_468)" fill-opacity="0.5" mask="url(#path-1-inside-1_5_468)"/>
</g>
<g filter="url(#filter1_f_5_468)">
<path fill-rule="evenodd" clip-rule="evenodd" d="M402 200.814C379.584 222.893 348.817 236.517 314.868 236.517C246.288 236.517 190.693 180.921 190.693 112.342C190.693 78.3925 204.317 47.6254 226.395 25.2094C150.482 35.6072 92 100.716 92 179.485C92 265.489 161.72 335.209 247.724 335.209C326.493 335.209 391.602 276.727 402 200.814Z" fill="url(#paint2_radial_5_468)"/>
</g>
<path fill-rule="evenodd" clip-rule="evenodd" d="M402 200.814C379.584 222.893 348.817 236.517 314.868 236.517C246.288 236.517 190.693 180.921 190.693 112.342C190.693 78.3925 204.317 47.6254 226.395 25.2094C150.482 35.6072 92 100.716 92 179.485C92 265.489 161.72 335.209 247.724 335.209C326.493 335.209 391.602 276.727 402 200.814Z" fill="url(#paint3_radial_5_468)"/>
<g filter="url(#filter2_b_5_468)">
<mask id="path-5-inside-2_5_468" fill="white">
<path fill-rule="evenodd" clip-rule="evenodd" d="M264.87 403.847C301.979 403.651 332 373.508 332 336.354C332 299.078 301.782 268.859 264.505 268.859C260.726 268.859 257.019 269.17 253.408 269.767C247.71 251.079 230.333 237.484 209.78 237.484C200.291 237.484 191.478 240.382 184.179 245.342C174.731 219.47 149.903 201 120.76 201C83.4843 201 53.2659 231.218 53.2659 268.495C53.2659 269.117 53.2744 269.738 53.2911 270.356C22.8351 276.879 0 303.95 0 336.354C0 373.508 30.0213 403.651 67.1297 403.847V403.848H67.4945H264.505H264.87V403.847Z"/>
</mask>
<path fill-rule="evenodd" clip-rule="evenodd" d="M264.87 403.847C301.979 403.651 332 373.508 332 336.354C332 299.078 301.782 268.859 264.505 268.859C260.726 268.859 257.019 269.17 253.408 269.767C247.71 251.079 230.333 237.484 209.78 237.484C200.291 237.484 191.478 240.382 184.179 245.342C174.731 219.47 149.903 201 120.76 201C83.4843 201 53.2659 231.218 53.2659 268.495C53.2659 269.117 53.2744 269.738 53.2911 270.356C22.8351 276.879 0 303.95 0 336.354C0 373.508 30.0213 403.651 67.1297 403.847V403.848H67.4945H264.505H264.87V403.847Z" fill="url(#paint4_linear_5_468)"/>
<path d="M264.87 403.847L264.86 401.847L262.87 401.858V403.847H264.87ZM253.408 269.767L251.495 270.351L252.006 272.026L253.735 271.74L253.408 269.767ZM184.179 245.342L182.301 246.028L183.181 248.438L185.303 246.996L184.179 245.342ZM53.2911 270.356L53.71 272.312L55.3354 271.964L55.2904 270.302L53.2911 270.356ZM67.1297 403.847H69.1297V401.858L67.1403 401.847L67.1297 403.847ZM67.1297 403.848H65.1297V405.848H67.1297V403.848ZM264.87 403.848V405.848H266.87V403.848H264.87ZM264.881 405.847C303.089 405.645 334 374.609 334 336.354H330C330 372.407 300.868 401.657 264.86 401.847L264.881 405.847ZM334 336.354C334 297.973 302.886 266.859 264.505 266.859V270.859C300.677 270.859 330 300.182 330 336.354H334ZM264.505 266.859C260.616 266.859 256.8 267.179 253.082 267.794L253.735 271.74C257.238 271.161 260.836 270.859 264.505 270.859V266.859ZM255.321 269.184C249.373 249.678 231.237 235.484 209.78 235.484V239.484C229.428 239.484 246.046 252.48 251.495 270.351L255.321 269.184ZM209.78 235.484C199.877 235.484 190.675 238.51 183.055 243.688L185.303 246.996C192.281 242.254 200.704 239.484 209.78 239.484V235.484ZM186.058 244.656C176.331 218.02 150.77 199 120.76 199V203C149.036 203 173.132 220.919 182.301 246.028L186.058 244.656ZM120.76 199C82.3797 199 51.2659 230.114 51.2659 268.495H55.2659C55.2659 232.323 84.5888 203 120.76 203V199ZM51.2659 268.495C51.2659 269.135 51.2746 269.774 51.2919 270.411L55.2904 270.302C55.2741 269.702 55.2659 269.099 55.2659 268.495H51.2659ZM52.8723 268.401C21.5131 275.117 -2 302.987 -2 336.354H2C2 304.913 24.157 278.642 53.71 272.312L52.8723 268.401ZM-2 336.354C-2 374.609 28.9109 405.645 67.1191 405.847L67.1403 401.847C31.1318 401.657 2 372.407 2 336.354H-2ZM69.1297 403.848V403.847H65.1297V403.848H69.1297ZM67.4945 401.848H67.1297V405.848H67.4945V401.848ZM264.505 401.848H67.4945V405.848H264.505V401.848ZM264.87 401.848H264.505V405.848H264.87V401.848ZM262.87 403.847V403.848H266.87V403.847H262.87Z" fill="url(#paint5_linear_5_468)" fill-opacity="0.5" mask="url(#path-5-inside-2_5_468)"/>
</g>
<defs>
<filter id="filter0_b_5_468" x="243" y="-6" width="252.702" height="173.848" filterUnits="userSpaceOnUse" color-interpolation-filters="sRGB">
<feFlood flood-opacity="0" result="BackgroundImageFix"/>
<feGaussianBlur in="BackgroundImage" stdDeviation="12.5"/>
<feComposite in2="SourceAlpha" operator="in" result="effect1_backgroundBlur_5_468"/>
<feBlend mode="normal" in="SourceGraphic" in2="effect1_backgroundBlur_5_468" result="shape"/>
</filter>
<filter id="filter1_f_5_468" x="67" y="0.209351" width="360" height="360" filterUnits="userSpaceOnUse" color-interpolation-filters="sRGB">
<feFlood flood-opacity="0" result="BackgroundImageFix"/>
<feBlend mode="normal" in="SourceGraphic" in2="BackgroundImageFix" result="shape"/>
<feGaussianBlur stdDeviation="12.5" result="effect1_foregroundBlur_5_468"/>
</filter>
<filter id="filter2_b_5_468" x="-25" y="176" width="382" height="252.848" filterUnits="userSpaceOnUse" color-interpolation-filters="sRGB">
<feFlood flood-opacity="0" result="BackgroundImageFix"/>
<feGaussianBlur in="BackgroundImage" stdDeviation="12.5"/>
<feComposite in2="SourceAlpha" operator="in" result="effect1_backgroundBlur_5_468"/>
<feBlend mode="normal" in="SourceGraphic" in2="effect1_backgroundBlur_5_468" result="shape"/>
</filter>
<linearGradient id="paint0_linear_5_468" x1="268" y1="19" x2="470.701" y2="142.848" gradientUnits="userSpaceOnUse">
<stop stop-color="white" stop-opacity="0.5"/>
<stop offset="1" stop-color="white" stop-opacity="0"/>
</linearGradient>
<linearGradient id="paint1_linear_5_468" x1="369.351" y1="19" x2="369.351" y2="142.848" gradientUnits="userSpaceOnUse">
<stop stop-color="white" stop-opacity="0"/>
<stop offset="1" stop-color="white" stop-opacity="0.5"/>
</linearGradient>
<radialGradient id="paint2_radial_5_468" cx="0" cy="0" r="1" gradientUnits="userSpaceOnUse" gradientTransform="translate(247 180.209) rotate(132.061) scale(187.297)">
<stop stop-color="#FDEA02"/>
<stop offset="1" stop-color="#FFD500"/>
</radialGradient>
<radialGradient id="paint3_radial_5_468" cx="0" cy="0" r="1" gradientUnits="userSpaceOnUse" gradientTransform="translate(247 180.209) rotate(132.061) scale(187.297)">
<stop stop-color="#FDEA02"/>
<stop offset="1" stop-color="#FFD500"/>
</radialGradient>
<linearGradient id="paint4_linear_5_468" x1="0" y1="201" x2="332" y2="403.848" gradientUnits="userSpaceOnUse">
<stop stop-color="white" stop-opacity="0.5"/>
<stop offset="1" stop-color="white" stop-opacity="0"/>
</linearGradient>
<linearGradient id="paint5_linear_5_468" x1="166" y1="201" x2="166" y2="403.848" gradientUnits="userSpaceOnUse">
<stop stop-color="white" stop-opacity="0"/>
<stop offset="1" stop-color="white" stop-opacity="0.5"/>
</linearGradient>
</defs>
</svg>
