<svg width="481" height="392" viewBox="0 0 481 392" fill="none" xmlns="http://www.w3.org/2000/svg">
<g filter="url(#filter0_f_5_510)">
<path fill-rule="evenodd" clip-rule="evenodd" d="M455.209 138.978C440.66 153.309 420.69 162.152 398.655 162.152C354.142 162.152 318.058 126.067 318.058 81.5542C318.058 59.5192 326.9 39.5494 341.231 25C291.959 31.7488 254 74.0088 254 125.135C254 180.957 299.253 226.209 355.075 226.209C406.2 226.209 448.46 188.251 455.209 138.978Z" fill="url(#paint0_radial_5_510)"/>
</g>
<path fill-rule="evenodd" clip-rule="evenodd" d="M455.209 138.978C440.66 153.309 420.69 162.152 398.655 162.152C354.142 162.152 318.058 126.067 318.058 81.5542C318.058 59.5192 326.9 39.5494 341.231 25C291.959 31.7488 254 74.0088 254 125.135C254 180.957 299.253 226.209 355.075 226.209C406.2 226.209 448.46 188.251 455.209 138.978Z" fill="url(#paint1_radial_5_510)"/>
<path d="M275 306.4C275 332.689 255.972 354 232.5 354C209.028 354 190 332.689 190 306.4C190 280.111 232.5 214 232.5 214C232.5 214 275 280.111 275 306.4Z" fill="white"/>
<path d="M185 366.5C185 380.583 174.926 392 162.5 392C150.074 392 140 380.583 140 366.5C140 352.417 162.5 317 162.5 317C162.5 317 185 352.417 185 366.5Z" fill="white"/>
<path d="M315 354.3C315 364.628 307.165 373 297.5 373C287.835 373 280 364.628 280 354.3C280 343.972 297.5 318 297.5 318C297.5 318 315 343.972 315 354.3Z" fill="white"/>
<g filter="url(#filter1_b_5_510)">
<mask id="path-6-inside-1_5_510" fill="white">
<path fill-rule="evenodd" clip-rule="evenodd" d="M363 302.999C413.856 302.73 455 261.42 455 210.5C455 159.414 413.586 118 362.5 118C357.32 118 352.24 118.426 347.292 119.244C339.482 93.6324 315.667 75 287.5 75C274.495 75 262.417 78.9723 252.414 85.7698C239.466 50.3123 205.439 25 165.5 25C114.414 25 73 66.4137 73 117.5C73 118.353 73.0116 119.204 73.0345 120.052C31.295 128.991 0 166.091 0 210.5C0 261.42 41.1437 302.73 92 302.999V303H92.5H362.5H363V302.999Z"/>
</mask>
<path fill-rule="evenodd" clip-rule="evenodd" d="M363 302.999C413.856 302.73 455 261.42 455 210.5C455 159.414 413.586 118 362.5 118C357.32 118 352.24 118.426 347.292 119.244C339.482 93.6324 315.667 75 287.5 75C274.495 75 262.417 78.9723 252.414 85.7698C239.466 50.3123 205.439 25 165.5 25C114.414 25 73 66.4137 73 117.5C73 118.353 73.0116 119.204 73.0345 120.052C31.295 128.991 0 166.091 0 210.5C0 261.42 41.1437 302.73 92 302.999V303H92.5H362.5H363V302.999Z" fill="url(#paint2_linear_5_510)"/>
<path d="M363 302.999L362.989 300.999L361 301.009V302.999H363ZM347.292 119.244L345.379 119.828L345.89 121.503L347.618 121.217L347.292 119.244ZM252.414 85.7698L250.536 86.4558L251.416 88.8664L253.538 87.424L252.414 85.7698ZM73.0345 120.052L73.4534 122.007L75.0788 121.659L75.0338 119.998L73.0345 120.052ZM92 302.999H94V301.009L92.0106 300.999L92 302.999ZM92 303H90V305H92V303ZM363 303V305H365V303H363ZM363.011 304.999C414.967 304.724 457 262.521 457 210.5H453C453 260.319 412.746 300.735 362.989 300.999L363.011 304.999ZM457 210.5C457 158.309 414.691 116 362.5 116V120C412.482 120 453 160.518 453 210.5H457ZM362.5 116C357.21 116 352.021 116.435 346.965 117.271L347.618 121.217C352.459 120.417 357.43 120 362.5 120V116ZM349.205 118.661C341.145 92.2311 316.571 73 287.5 73V77C314.762 77 337.818 95.0338 345.379 119.828L349.205 118.661ZM287.5 73C274.081 73 261.614 77.0999 251.29 84.1156L253.538 87.424C263.22 80.8447 274.908 77 287.5 77V73ZM254.293 85.0838C241.066 48.8625 206.306 23 165.5 23V27C204.572 27 237.866 51.762 250.536 86.4558L254.293 85.0838ZM165.5 23C113.309 23 71 65.3091 71 117.5H75C75 67.5182 115.518 27 165.5 27V23ZM71 117.5C71 118.371 71.0118 119.24 71.0352 120.106L75.0338 119.998C75.0113 119.168 75 118.335 75 117.5H71ZM72.6157 118.096C29.9731 127.229 -2 165.128 -2 210.5H2C2 167.054 32.617 130.754 73.4534 122.007L72.6157 118.096ZM-2 210.5C-2 262.521 40.0333 304.724 91.9894 304.999L92.0106 300.999C42.2541 300.735 2 260.319 2 210.5H-2ZM94 303V302.999H90V303H94ZM92.5 301H92V305H92.5V301ZM362.5 301H92.5V305H362.5V301ZM363 301H362.5V305H363V301ZM361 302.999V303H365V302.999H361Z" fill="url(#paint3_linear_5_510)" fill-opacity="0.5" mask="url(#path-6-inside-1_5_510)"/>
</g>
<defs>
<filter id="filter0_f_5_510" x="229" y="0" width="251.209" height="251.209" filterUnits="userSpaceOnUse" color-interpolation-filters="sRGB">
<feFlood flood-opacity="0" result="BackgroundImageFix"/>
<feBlend mode="normal" in="SourceGraphic" in2="BackgroundImageFix" result="shape"/>
<feGaussianBlur stdDeviation="12.5" result="effect1_foregroundBlur_5_510"/>
</filter>
<filter id="filter1_b_5_510" x="-25" y="0" width="505" height="328" filterUnits="userSpaceOnUse" color-interpolation-filters="sRGB">
<feFlood flood-opacity="0" result="BackgroundImageFix"/>
<feGaussianBlur in="BackgroundImage" stdDeviation="12.5"/>
<feComposite in2="SourceAlpha" operator="in" result="effect1_backgroundBlur_5_510"/>
<feBlend mode="normal" in="SourceGraphic" in2="effect1_backgroundBlur_5_510" result="shape"/>
</filter>
<radialGradient id="paint0_radial_5_510" cx="0" cy="0" r="1" gradientUnits="userSpaceOnUse" gradientTransform="translate(354.605 125.605) rotate(132.061) scale(121.567)">
<stop stop-color="#FDEA02"/>
<stop offset="1" stop-color="#FFD500"/>
</radialGradient>
<radialGradient id="paint1_radial_5_510" cx="0" cy="0" r="1" gradientUnits="userSpaceOnUse" gradientTransform="translate(354.605 125.605) rotate(132.061) scale(121.567)">
<stop stop-color="#FDEA02"/>
<stop offset="1" stop-color="#FFD500"/>
</radialGradient>
<linearGradient id="paint2_linear_5_510" x1="0" y1="25" x2="455" y2="303" gradientUnits="userSpaceOnUse">
<stop stop-color="white" stop-opacity="0.5"/>
<stop offset="1" stop-color="white" stop-opacity="0"/>
</linearGradient>
<linearGradient id="paint3_linear_5_510" x1="227.5" y1="25" x2="227.5" y2="303" gradientUnits="userSpaceOnUse">
<stop stop-color="white" stop-opacity="0"/>
<stop offset="1" stop-color="white" stop-opacity="0.5"/>
</linearGradient>
</defs>
</svg>
