<svg width="471" height="414" viewBox="0 0 471 414" fill="none" xmlns="http://www.w3.org/2000/svg">
<g filter="url(#filter0_f_5_445)">
<circle cx="247" cy="190" r="155" fill="url(#paint0_linear_5_445)"/>
</g>
<circle cx="247" cy="190" r="155" fill="url(#paint1_linear_5_445)"/>
<g filter="url(#filter1_b_5_445)">
<mask id="path-3-inside-1_5_445" fill="white">
<path fill-rule="evenodd" clip-rule="evenodd" d="M264.87 413.847C301.979 413.651 332 383.508 332 346.354C332 309.078 301.782 278.859 264.505 278.859C260.726 278.859 257.019 279.17 253.408 279.767C247.71 261.079 230.333 247.484 209.78 247.484C200.291 247.484 191.478 250.382 184.179 255.342C174.731 229.47 149.903 211 120.76 211C83.4843 211 53.2659 241.218 53.2659 278.495C53.2659 279.117 53.2744 279.738 53.2911 280.356C22.8351 286.879 0 313.95 0 346.354C0 383.508 30.0213 413.651 67.1297 413.847V413.848H67.4945H264.505H264.87V413.847Z"/>
</mask>
<path fill-rule="evenodd" clip-rule="evenodd" d="M264.87 413.847C301.979 413.651 332 383.508 332 346.354C332 309.078 301.782 278.859 264.505 278.859C260.726 278.859 257.019 279.17 253.408 279.767C247.71 261.079 230.333 247.484 209.78 247.484C200.291 247.484 191.478 250.382 184.179 255.342C174.731 229.47 149.903 211 120.76 211C83.4843 211 53.2659 241.218 53.2659 278.495C53.2659 279.117 53.2744 279.738 53.2911 280.356C22.8351 286.879 0 313.95 0 346.354C0 383.508 30.0213 413.651 67.1297 413.847V413.848H67.4945H264.505H264.87V413.847Z" fill="url(#paint2_linear_5_445)"/>
<path d="M264.87 413.847L264.86 411.847L262.87 411.858V413.847H264.87ZM253.408 279.767L251.495 280.351L252.006 282.026L253.735 281.74L253.408 279.767ZM184.179 255.342L182.301 256.028L183.181 258.438L185.303 256.996L184.179 255.342ZM53.2911 280.356L53.71 282.312L55.3354 281.964L55.2904 280.302L53.2911 280.356ZM67.1297 413.847H69.1297V411.858L67.1403 411.847L67.1297 413.847ZM67.1297 413.848H65.1297V415.848H67.1297V413.848ZM264.87 413.848V415.848H266.87V413.848H264.87ZM264.881 415.847C303.089 415.645 334 384.609 334 346.354H330C330 382.407 300.868 411.657 264.86 411.847L264.881 415.847ZM334 346.354C334 307.973 302.886 276.859 264.505 276.859V280.859C300.677 280.859 330 310.182 330 346.354H334ZM264.505 276.859C260.616 276.859 256.8 277.179 253.082 277.794L253.735 281.74C257.238 281.161 260.836 280.859 264.505 280.859V276.859ZM255.321 279.184C249.373 259.678 231.237 245.484 209.78 245.484V249.484C229.428 249.484 246.046 262.48 251.495 280.351L255.321 279.184ZM209.78 245.484C199.877 245.484 190.675 248.51 183.055 253.688L185.303 256.996C192.281 252.254 200.704 249.484 209.78 249.484V245.484ZM186.058 254.656C176.331 228.02 150.77 209 120.76 209V213C149.036 213 173.132 230.919 182.301 256.028L186.058 254.656ZM120.76 209C82.3797 209 51.2659 240.114 51.2659 278.495H55.2659C55.2659 242.323 84.5888 213 120.76 213V209ZM51.2659 278.495C51.2659 279.135 51.2746 279.774 51.2919 280.411L55.2904 280.302C55.2741 279.702 55.2659 279.099 55.2659 278.495H51.2659ZM52.8723 278.401C21.5131 285.117 -2 312.987 -2 346.354H2C2 314.913 24.157 288.642 53.71 282.312L52.8723 278.401ZM-2 346.354C-2 384.609 28.9109 415.645 67.1191 415.847L67.1403 411.847C31.1318 411.657 2 382.407 2 346.354H-2ZM69.1297 413.848V413.847H65.1297V413.848H69.1297ZM67.4945 411.848H67.1297V415.848H67.4945V411.848ZM264.505 411.848H67.4945V415.848H264.505V411.848ZM264.87 411.848H264.505V415.848H264.87V411.848ZM262.87 413.847V413.848H266.87V413.847H262.87Z" fill="url(#paint3_linear_5_445)" fill-opacity="0.5" mask="url(#path-3-inside-1_5_445)"/>
</g>
<g filter="url(#filter2_b_5_445)">
<mask id="path-5-inside-2_5_445" fill="white">
<path fill-rule="evenodd" clip-rule="evenodd" d="M309.234 152.848C309.225 152.848 309.217 152.848 309.209 152.848C309.2 152.848 309.192 152.848 309.183 152.848H308.986V152.848C286.329 152.728 268 134.324 268 111.64C268 91.8557 281.942 75.328 300.537 71.3453C300.526 70.9676 300.521 70.5887 300.521 70.2085C300.521 47.4497 318.971 29 341.73 29C359.523 29 374.682 40.2766 380.45 56.0728C384.906 53.0445 390.287 51.2749 396.081 51.2749C408.629 51.2749 419.238 59.5756 422.718 70.9856C424.922 70.621 427.185 70.4313 429.493 70.4313C452.252 70.4313 470.701 88.881 470.701 111.64C470.701 134.324 452.372 152.728 429.716 152.848V152.848H429.493H309.234Z"/>
</mask>
<path fill-rule="evenodd" clip-rule="evenodd" d="M309.234 152.848C309.225 152.848 309.217 152.848 309.209 152.848C309.2 152.848 309.192 152.848 309.183 152.848H308.986V152.848C286.329 152.728 268 134.324 268 111.64C268 91.8557 281.942 75.328 300.537 71.3453C300.526 70.9676 300.521 70.5887 300.521 70.2085C300.521 47.4497 318.971 29 341.73 29C359.523 29 374.682 40.2766 380.45 56.0728C384.906 53.0445 390.287 51.2749 396.081 51.2749C408.629 51.2749 419.238 59.5756 422.718 70.9856C424.922 70.621 427.185 70.4313 429.493 70.4313C452.252 70.4313 470.701 88.881 470.701 111.64C470.701 134.324 452.372 152.728 429.716 152.848V152.848H429.493H309.234Z" fill="url(#paint4_linear_5_445)"/>
<path d="M308.986 152.848H306.986V154.848H308.986V152.848ZM308.986 152.848H310.986V150.858L308.996 150.848L308.986 152.848ZM300.537 71.3453L300.956 73.301L302.581 72.9528L302.536 71.2912L300.537 71.3453ZM380.45 56.0728L378.571 56.7588L379.452 59.1694L381.574 57.727L380.45 56.0728ZM422.718 70.9856L420.805 71.5689L421.316 73.2447L423.044 72.9588L422.718 70.9856ZM429.716 152.848L429.705 150.848L427.716 150.858V152.848H429.716ZM429.716 152.848V154.848H431.716V152.848H429.716ZM309.209 154.848C309.213 154.848 309.218 154.848 309.222 154.848C309.226 154.848 309.23 154.848 309.234 154.848V150.848C309.229 150.848 309.224 150.848 309.22 150.848C309.216 150.848 309.212 150.848 309.209 150.848V154.848ZM309.183 154.848C309.187 154.848 309.191 154.848 309.195 154.848C309.199 154.848 309.204 154.848 309.209 154.848V150.848C309.205 150.848 309.201 150.848 309.197 150.848C309.193 150.848 309.188 150.848 309.183 150.848V154.848ZM309.183 150.848H308.986V154.848H309.183V150.848ZM310.986 152.848V152.848H306.986V152.848H310.986ZM266 111.64C266 135.425 285.219 154.722 308.975 154.848L308.996 150.848C287.44 150.734 270 133.223 270 111.64H266ZM300.118 69.3897C280.62 73.5657 266 90.8931 266 111.64H270C270 92.8184 283.264 77.0902 300.956 73.301L300.118 69.3897ZM298.521 70.2085C298.521 70.6067 298.527 71.0037 298.537 71.3995L302.536 71.2912C302.526 70.9315 302.521 70.5706 302.521 70.2085H298.521ZM341.73 27C317.866 27 298.521 46.3451 298.521 70.2085H302.521C302.521 48.5543 320.076 31 341.73 31V27ZM382.329 55.3868C376.281 38.8268 360.389 27 341.73 27V31C358.656 31 373.082 41.7263 378.571 56.7588L382.329 55.3868ZM396.081 49.2749C389.873 49.2749 384.103 51.1722 379.326 54.4186L381.574 57.727C385.709 54.9169 390.7 53.2749 396.081 53.2749V49.2749ZM424.631 70.4022C420.902 58.1743 409.533 49.2749 396.081 49.2749V53.2749C407.724 53.2749 417.575 60.9769 420.805 71.5689L424.631 70.4022ZM429.493 68.4313C427.075 68.4313 424.703 68.63 422.391 69.0124L423.044 72.9588C425.141 72.6119 427.295 72.4313 429.493 72.4313V68.4313ZM472.701 111.64C472.701 87.7764 453.356 68.4313 429.493 68.4313V72.4313C451.147 72.4313 468.701 89.9855 468.701 111.64H472.701ZM429.726 154.848C453.482 154.722 472.701 135.425 472.701 111.64H468.701C468.701 133.223 451.262 150.734 429.705 150.848L429.726 154.848ZM427.716 152.848V152.848H431.716V152.848H427.716ZM429.716 150.848H429.493V154.848H429.716V150.848ZM429.493 150.848H309.234V154.848H429.493V150.848Z" fill="url(#paint5_linear_5_445)" fill-opacity="0.5" mask="url(#path-5-inside-2_5_445)"/>
</g>
<defs>
<filter id="filter0_f_5_445" x="57" y="0" width="380" height="380" filterUnits="userSpaceOnUse" color-interpolation-filters="sRGB">
<feFlood flood-opacity="0" result="BackgroundImageFix"/>
<feBlend mode="normal" in="SourceGraphic" in2="BackgroundImageFix" result="shape"/>
<feGaussianBlur stdDeviation="17.5" result="effect1_foregroundBlur_5_445"/>
</filter>
<filter id="filter1_b_5_445" x="-25" y="186" width="382" height="252.848" filterUnits="userSpaceOnUse" color-interpolation-filters="sRGB">
<feFlood flood-opacity="0" result="BackgroundImageFix"/>
<feGaussianBlur in="BackgroundImage" stdDeviation="12.5"/>
<feComposite in2="SourceAlpha" operator="in" result="effect1_backgroundBlur_5_445"/>
<feBlend mode="normal" in="SourceGraphic" in2="effect1_backgroundBlur_5_445" result="shape"/>
</filter>
<filter id="filter2_b_5_445" x="243" y="4" width="252.702" height="173.848" filterUnits="userSpaceOnUse" color-interpolation-filters="sRGB">
<feFlood flood-opacity="0" result="BackgroundImageFix"/>
<feGaussianBlur in="BackgroundImage" stdDeviation="12.5"/>
<feComposite in2="SourceAlpha" operator="in" result="effect1_backgroundBlur_5_445"/>
<feBlend mode="normal" in="SourceGraphic" in2="effect1_backgroundBlur_5_445" result="shape"/>
</filter>
<linearGradient id="paint0_linear_5_445" x1="92" y1="35" x2="402" y2="345" gradientUnits="userSpaceOnUse">
<stop stop-color="#F9CC5F"/>
<stop offset="1" stop-color="#FEA119"/>
</linearGradient>
<linearGradient id="paint1_linear_5_445" x1="92" y1="35" x2="402" y2="345" gradientUnits="userSpaceOnUse">
<stop stop-color="#F9CC5F"/>
<stop offset="1" stop-color="#FEA119"/>
</linearGradient>
<linearGradient id="paint2_linear_5_445" x1="0" y1="211" x2="332" y2="413.848" gradientUnits="userSpaceOnUse">
<stop stop-color="white" stop-opacity="0.5"/>
<stop offset="1" stop-color="white" stop-opacity="0"/>
</linearGradient>
<linearGradient id="paint3_linear_5_445" x1="166" y1="211" x2="166" y2="413.848" gradientUnits="userSpaceOnUse">
<stop stop-color="white" stop-opacity="0"/>
<stop offset="1" stop-color="white" stop-opacity="0.5"/>
</linearGradient>
<linearGradient id="paint4_linear_5_445" x1="268" y1="29" x2="470.701" y2="152.848" gradientUnits="userSpaceOnUse">
<stop stop-color="white" stop-opacity="0.5"/>
<stop offset="1" stop-color="white" stop-opacity="0"/>
</linearGradient>
<linearGradient id="paint5_linear_5_445" x1="369.351" y1="29" x2="369.351" y2="152.848" gradientUnits="userSpaceOnUse">
<stop stop-color="white" stop-opacity="0"/>
<stop offset="1" stop-color="white" stop-opacity="0.5"/>
</linearGradient>
</defs>
</svg>
