<svg width="455" height="376" viewBox="0 0 455 376" fill="none" xmlns="http://www.w3.org/2000/svg">
<path fill-rule="evenodd" clip-rule="evenodd" d="M239.929 325C237.168 325 234.929 322.761 234.929 320V301.962L225.607 311.284C223.654 313.237 220.488 313.237 218.536 311.284C216.583 309.332 216.583 306.166 218.536 304.213L234.929 287.82V261.54L212.321 274.593L206.36 296.838C205.645 299.505 202.904 301.088 200.236 300.373C197.569 299.659 195.986 296.917 196.701 294.25L200.073 281.664L184.546 290.629C182.155 292.009 179.097 291.19 177.716 288.799L177.698 288.768L177.68 288.737C176.3 286.346 177.119 283.288 179.511 281.907L195.132 272.888L182.398 269.476C179.73 268.761 178.147 266.019 178.862 263.352C179.577 260.685 182.318 259.102 184.986 259.816L207.379 265.817L230.549 252.44L207.441 239.098L184.95 245.125C182.283 245.839 179.541 244.257 178.826 241.589C178.112 238.922 179.695 236.18 182.362 235.465L195.194 232.027L179.511 222.973C177.119 221.592 176.3 218.534 177.68 216.143L177.698 216.112L177.716 216.081C179.097 213.69 182.155 212.87 184.546 214.251L200.012 223.18L196.665 210.691C195.951 208.024 197.533 205.282 200.201 204.568C202.868 203.853 205.61 205.436 206.325 208.103L212.259 230.251L234.929 243.339V217.251L218.465 200.787C216.512 198.834 216.512 195.668 218.465 193.716C220.417 191.763 223.583 191.763 225.536 193.716L234.929 203.109V185C234.929 182.239 237.168 180 239.929 180L239.965 180L240 180C242.762 180 245 182.239 245 185V202.858L254.142 193.716C256.095 191.763 259.261 191.763 261.213 193.716C263.166 195.668 263.166 198.834 261.213 200.787L245 217V244.096L268.494 230.533L274.52 208.042C275.235 205.374 277.976 203.791 280.644 204.506C283.311 205.221 284.894 207.963 284.179 210.63L280.741 223.461L296.424 214.407C298.815 213.026 301.873 213.846 303.254 216.237L303.272 216.268L303.29 216.299C304.67 218.69 303.851 221.748 301.46 223.129L285.994 232.058L298.483 235.404C301.15 236.119 302.733 238.86 302.018 241.528C301.303 244.195 298.562 245.778 295.894 245.063L273.747 239.129L250.691 252.44L273.685 265.715L295.93 259.755C298.597 259.04 301.339 260.623 302.054 263.29C302.768 265.958 301.185 268.699 298.518 269.414L285.933 272.786L301.46 281.751C303.851 283.132 304.67 286.19 303.29 288.581L303.272 288.612L303.254 288.643C301.873 291.034 298.815 291.853 296.424 290.473L280.803 281.454L284.215 294.188C284.93 296.855 283.347 299.597 280.679 300.312C278.012 301.027 275.27 299.444 274.556 296.776L268.555 274.383L245 260.783V287.929L261.284 304.213C263.237 306.166 263.237 309.332 261.284 311.284C259.332 313.237 256.166 313.237 254.213 311.284L245 302.071V320C245 322.761 242.762 325 240 325L239.965 325L239.929 325Z" fill="white"/>
<path fill-rule="evenodd" clip-rule="evenodd" d="M327.265 360.137C325.959 360.137 324.901 359.079 324.901 357.774V349.249L320.495 353.655C319.573 354.578 318.076 354.578 317.153 353.655C316.231 352.732 316.231 351.236 317.153 350.313L324.901 342.565V330.145L314.216 336.314L311.399 346.827C311.061 348.088 309.765 348.836 308.505 348.498C307.244 348.16 306.496 346.865 306.834 345.604L308.428 339.656L301.089 343.893C299.959 344.545 298.514 344.158 297.861 343.028L297.851 343.01L297.844 342.999C297.192 341.868 297.579 340.423 298.709 339.77L306.092 335.508L300.074 333.895C298.813 333.557 298.065 332.262 298.403 331.001C298.741 329.74 300.036 328.992 301.297 329.33L311.881 332.166L322.831 325.844L311.91 319.538L301.28 322.386C300.019 322.724 298.724 321.976 298.386 320.715C298.048 319.455 298.796 318.159 300.057 317.821L306.121 316.196L298.709 311.917C297.579 311.264 297.192 309.819 297.844 308.689L297.852 308.675L297.861 308.66C298.514 307.529 299.959 307.142 301.089 307.795L308.398 312.015L306.817 306.112C306.479 304.852 307.227 303.556 308.488 303.218C309.749 302.88 311.044 303.629 311.382 304.889L314.187 315.357L324.901 321.543V309.213L317.12 301.431C316.197 300.508 316.197 299.012 317.12 298.089C318.043 297.166 319.539 297.166 320.462 298.089L324.901 302.529V293.97C324.901 292.665 325.959 291.607 327.265 291.607L327.281 291.607L327.298 291.607C328.603 291.607 329.661 292.665 329.661 293.97V302.41L333.982 298.089C334.905 297.166 336.401 297.166 337.324 298.089C338.247 299.012 338.247 300.508 337.324 301.431L329.661 309.094V321.9L340.765 315.49L343.613 304.86C343.951 303.599 345.247 302.851 346.507 303.189C347.768 303.527 348.516 304.823 348.178 306.083L346.553 312.148L353.965 307.868C355.096 307.216 356.541 307.603 357.193 308.733L357.204 308.751L357.21 308.762C357.863 309.893 357.476 311.338 356.345 311.991L349.036 316.211L354.938 317.792C356.199 318.13 356.947 319.426 356.609 320.686C356.272 321.947 354.976 322.695 353.715 322.357L343.248 319.552L332.351 325.844L343.219 332.118L353.732 329.301C354.993 328.963 356.288 329.711 356.626 330.972C356.964 332.233 356.216 333.528 354.955 333.866L349.007 335.46L356.345 339.697C357.476 340.349 357.863 341.795 357.21 342.925L357.202 342.938L357.194 342.954C356.541 344.084 355.096 344.472 353.965 343.819L346.583 339.556L348.195 345.575C348.533 346.836 347.785 348.131 346.524 348.469C345.264 348.807 343.968 348.059 343.63 346.798L340.794 336.215L329.661 329.787V342.617L337.358 350.313C338.28 351.236 338.28 352.732 337.358 353.655C336.435 354.578 334.939 354.578 334.016 353.655L329.661 349.301V357.774C329.661 359.079 328.603 360.137 327.298 360.137L327.281 360.137L327.265 360.137Z" fill="white"/>
<path fill-rule="evenodd" clip-rule="evenodd" d="M132.231 330.683L117.85 338.986L103.951 335.262C102.295 334.818 100.593 335.801 100.15 337.456C99.7062 339.112 100.689 340.814 102.344 341.257L110.248 343.375L100.552 348.973C99.0678 349.83 98.5592 351.728 99.4162 353.212L99.4329 353.241L99.4385 353.251C100.296 354.735 102.194 355.244 103.678 354.387L113.315 348.822L111.222 356.634C110.779 358.29 111.761 359.991 113.417 360.435C115.072 360.879 116.774 359.896 117.218 358.241L120.917 344.433L134.95 336.332V352.643L124.775 362.818C123.563 364.03 123.563 365.995 124.775 367.207C125.987 368.419 127.952 368.419 129.164 367.207L134.95 361.421V372.617C134.95 374.331 136.34 375.72 138.054 375.72L138.078 375.72L138.098 375.72C139.812 375.72 141.201 374.331 141.201 372.617V361.489L146.92 367.207C148.132 368.419 150.097 368.419 151.309 367.207C152.521 365.995 152.521 364.03 151.309 362.818L141.201 352.711V335.862L155.822 344.303L159.546 358.202C159.99 359.858 161.691 360.84 163.347 360.397C165.002 359.953 165.985 358.251 165.541 356.596L163.423 348.692L173.119 354.29C174.604 355.147 176.502 354.638 177.359 353.154L177.373 353.13L177.381 353.116C178.238 351.631 177.729 349.733 176.245 348.876L166.608 343.312L174.419 341.219C176.075 340.775 177.057 339.074 176.614 337.418C176.17 335.762 174.468 334.78 172.813 335.223L159.006 338.923L144.734 330.683L159.044 322.421L172.79 326.104C174.446 326.548 176.148 325.566 176.591 323.91C177.035 322.254 176.053 320.553 174.397 320.109L166.646 318.032L176.245 312.49C177.729 311.633 178.238 309.735 177.381 308.251L177.364 308.222L177.358 308.212C176.502 306.728 174.603 306.219 173.119 307.076L163.385 312.696L165.519 304.732C165.963 303.076 164.98 301.375 163.325 300.931C161.669 300.488 159.967 301.47 159.524 303.126L155.783 317.085L141.201 325.504V308.686L151.264 298.623C152.476 297.411 152.476 295.446 151.264 294.234C150.053 293.022 148.088 293.022 146.876 294.234L141.201 299.908V288.824C141.201 287.11 139.812 285.72 138.098 285.72L138.073 285.72L138.054 285.72C136.34 285.72 134.95 287.11 134.95 288.824V300.064L129.12 294.234C127.908 293.022 125.943 293.022 124.731 294.234C123.519 295.446 123.519 297.411 124.731 298.623L134.95 308.842V325.035L120.879 316.911L117.196 303.164C116.752 301.508 115.05 300.526 113.395 300.969C111.739 301.413 110.757 303.115 111.2 304.77L113.277 312.522L103.678 306.98C102.194 306.123 100.296 306.631 99.4386 308.116L99.4249 308.14L99.4166 308.154C98.5596 309.638 99.0682 311.536 100.553 312.393L110.287 318.013L102.322 320.147C100.667 320.591 99.6841 322.293 100.128 323.948C100.571 325.604 102.273 326.586 103.929 326.143L117.889 322.402L132.231 330.683Z" fill="white"/>
<g filter="url(#filter0_b_3_156)">
<mask id="path-4-inside-1_3_156" fill="white">
<path fill-rule="evenodd" clip-rule="evenodd" d="M363 277.999C413.856 277.73 455 236.42 455 185.5C455 134.414 413.586 93 362.5 93C357.32 93 352.24 93.4258 347.292 94.2442C339.482 68.6324 315.667 50 287.5 50C274.495 50 262.417 53.9723 252.414 60.7698C239.466 25.3123 205.439 0 165.5 0C114.414 0 73 41.4137 73 92.5C73 93.3533 73.0116 94.2039 73.0345 95.0517C31.295 103.991 0 141.091 0 185.5C0 236.42 41.1437 277.73 92 277.999V278H92.5H362.5H363V277.999Z"/>
</mask>
<path fill-rule="evenodd" clip-rule="evenodd" d="M363 277.999C413.856 277.73 455 236.42 455 185.5C455 134.414 413.586 93 362.5 93C357.32 93 352.24 93.4258 347.292 94.2442C339.482 68.6324 315.667 50 287.5 50C274.495 50 262.417 53.9723 252.414 60.7698C239.466 25.3123 205.439 0 165.5 0C114.414 0 73 41.4137 73 92.5C73 93.3533 73.0116 94.2039 73.0345 95.0517C31.295 103.991 0 141.091 0 185.5C0 236.42 41.1437 277.73 92 277.999V278H92.5H362.5H363V277.999Z" fill="url(#paint0_linear_3_156)"/>
<path d="M363 277.999L362.989 275.999L361 276.009V277.999H363ZM347.292 94.2442L345.379 94.8276L345.89 96.5033L347.618 96.2174L347.292 94.2442ZM252.414 60.7698L250.536 61.4558L251.416 63.8664L253.538 62.424L252.414 60.7698ZM73.0345 95.0517L73.4534 97.0074L75.0788 96.6592L75.0338 94.9976L73.0345 95.0517ZM92 277.999H94V276.009L92.0106 275.999L92 277.999ZM92 278H90V280H92V278ZM363 278V280H365V278H363ZM363.011 279.999C414.967 279.724 457 237.521 457 185.5H453C453 235.319 412.746 275.735 362.989 275.999L363.011 279.999ZM457 185.5C457 133.309 414.691 91 362.5 91V95C412.482 95 453 135.518 453 185.5H457ZM362.5 91C357.21 91 352.021 91.4348 346.965 92.271L347.618 96.2174C352.459 95.4167 357.43 95 362.5 95V91ZM349.205 93.6609C341.145 67.2311 316.571 48 287.5 48V52C314.762 52 337.818 70.0338 345.379 94.8276L349.205 93.6609ZM287.5 48C274.081 48 261.614 52.0999 251.29 59.1156L253.538 62.424C263.22 55.8447 274.908 52 287.5 52V48ZM254.293 60.0838C241.066 23.8625 206.306 -2 165.5 -2V2C204.572 2 237.866 26.762 250.536 61.4558L254.293 60.0838ZM165.5 -2C113.309 -2 71 40.3091 71 92.5H75C75 42.5182 115.518 2 165.5 2V-2ZM71 92.5C71 93.3714 71.0118 94.24 71.0352 95.1059L75.0338 94.9976C75.0113 94.1678 75 93.3353 75 92.5H71ZM72.6157 93.0961C29.9731 102.229 -2 140.128 -2 185.5H2C2 142.054 32.617 105.754 73.4534 97.0074L72.6157 93.0961ZM-2 185.5C-2 237.521 40.0333 279.724 91.9894 279.999L92.0106 275.999C42.2541 275.735 2 235.319 2 185.5H-2ZM94 278V277.999H90V278H94ZM92.5 276H92V280H92.5V276ZM362.5 276H92.5V280H362.5V276ZM363 276H362.5V280H363V276ZM361 277.999V278H365V277.999H361Z" fill="url(#paint1_linear_3_156)" fill-opacity="0.5" mask="url(#path-4-inside-1_3_156)"/>
</g>
<defs>
<filter id="filter0_b_3_156" x="-25" y="-25" width="505" height="328" filterUnits="userSpaceOnUse" color-interpolation-filters="sRGB">
<feFlood flood-opacity="0" result="BackgroundImageFix"/>
<feGaussianBlur in="BackgroundImage" stdDeviation="12.5"/>
<feComposite in2="SourceAlpha" operator="in" result="effect1_backgroundBlur_3_156"/>
<feBlend mode="normal" in="SourceGraphic" in2="effect1_backgroundBlur_3_156" result="shape"/>
</filter>
<linearGradient id="paint0_linear_3_156" x1="0" y1="0" x2="455" y2="278" gradientUnits="userSpaceOnUse">
<stop stop-color="white" stop-opacity="0.5"/>
<stop offset="1" stop-color="white" stop-opacity="0"/>
</linearGradient>
<linearGradient id="paint1_linear_3_156" x1="227.5" y1="0" x2="227.5" y2="278" gradientUnits="userSpaceOnUse">
<stop stop-color="white" stop-opacity="0"/>
<stop offset="1" stop-color="white" stop-opacity="0.5"/>
</linearGradient>
</defs>
</svg>
