<svg width="455" height="367" viewBox="0 0 455 367" fill="none" xmlns="http://www.w3.org/2000/svg">
<path d="M275 281.4C275 307.689 255.972 329 232.5 329C209.028 329 190 307.689 190 281.4C190 255.111 232.5 189 232.5 189C232.5 189 275 255.111 275 281.4Z" fill="white"/>
<path d="M185 341.5C185 355.583 174.926 367 162.5 367C150.074 367 140 355.583 140 341.5C140 327.417 162.5 292 162.5 292C162.5 292 185 327.417 185 341.5Z" fill="white"/>
<path d="M315 329.3C315 339.628 307.165 348 297.5 348C287.835 348 280 339.628 280 329.3C280 318.972 297.5 293 297.5 293C297.5 293 315 318.972 315 329.3Z" fill="white"/>
<g filter="url(#filter0_b_5_178)">
<mask id="path-4-inside-1_5_178" fill="white">
<path fill-rule="evenodd" clip-rule="evenodd" d="M363 277.999C413.856 277.73 455 236.42 455 185.5C455 134.414 413.586 93 362.5 93C357.32 93 352.24 93.4258 347.292 94.2442C339.482 68.6324 315.667 50 287.5 50C274.495 50 262.417 53.9723 252.414 60.7698C239.466 25.3123 205.439 0 165.5 0C114.414 0 73 41.4137 73 92.5C73 93.3533 73.0116 94.2039 73.0345 95.0517C31.295 103.991 0 141.091 0 185.5C0 236.42 41.1437 277.73 92 277.999V278H92.5H362.5H363V277.999Z"/>
</mask>
<path fill-rule="evenodd" clip-rule="evenodd" d="M363 277.999C413.856 277.73 455 236.42 455 185.5C455 134.414 413.586 93 362.5 93C357.32 93 352.24 93.4258 347.292 94.2442C339.482 68.6324 315.667 50 287.5 50C274.495 50 262.417 53.9723 252.414 60.7698C239.466 25.3123 205.439 0 165.5 0C114.414 0 73 41.4137 73 92.5C73 93.3533 73.0116 94.2039 73.0345 95.0517C31.295 103.991 0 141.091 0 185.5C0 236.42 41.1437 277.73 92 277.999V278H92.5H362.5H363V277.999Z" fill="url(#paint0_linear_5_178)"/>
<path d="M363 277.999L362.989 275.999L361 276.009V277.999H363ZM347.292 94.2442L345.379 94.8276L345.89 96.5033L347.618 96.2174L347.292 94.2442ZM252.414 60.7698L250.536 61.4558L251.416 63.8664L253.538 62.424L252.414 60.7698ZM73.0345 95.0517L73.4534 97.0074L75.0788 96.6592L75.0338 94.9976L73.0345 95.0517ZM92 277.999H94V276.009L92.0106 275.999L92 277.999ZM92 278H90V280H92V278ZM363 278V280H365V278H363ZM363.011 279.999C414.967 279.724 457 237.521 457 185.5H453C453 235.319 412.746 275.735 362.989 275.999L363.011 279.999ZM457 185.5C457 133.309 414.691 91 362.5 91V95C412.482 95 453 135.518 453 185.5H457ZM362.5 91C357.21 91 352.021 91.4348 346.965 92.271L347.618 96.2174C352.459 95.4167 357.43 95 362.5 95V91ZM349.205 93.6609C341.145 67.2311 316.571 48 287.5 48V52C314.762 52 337.818 70.0338 345.379 94.8276L349.205 93.6609ZM287.5 48C274.081 48 261.614 52.0999 251.29 59.1156L253.538 62.424C263.22 55.8447 274.908 52 287.5 52V48ZM254.293 60.0838C241.066 23.8625 206.306 -2 165.5 -2V2C204.572 2 237.866 26.762 250.536 61.4558L254.293 60.0838ZM165.5 -2C113.309 -2 71 40.3091 71 92.5H75C75 42.5182 115.518 2 165.5 2V-2ZM71 92.5C71 93.3714 71.0118 94.24 71.0352 95.1059L75.0338 94.9976C75.0113 94.1678 75 93.3353 75 92.5H71ZM72.6157 93.0961C29.9731 102.229 -2 140.128 -2 185.5H2C2 142.054 32.617 105.754 73.4534 97.0074L72.6157 93.0961ZM-2 185.5C-2 237.521 40.0333 279.724 91.9894 279.999L92.0106 275.999C42.2541 275.735 2 235.319 2 185.5H-2ZM94 278V277.999H90V278H94ZM92.5 276H92V280H92.5V276ZM362.5 276H92.5V280H362.5V276ZM363 276H362.5V280H363V276ZM361 277.999V278H365V277.999H361Z" fill="url(#paint1_linear_5_178)" fill-opacity="0.5" mask="url(#path-4-inside-1_5_178)"/>
</g>
<defs>
<filter id="filter0_b_5_178" x="-25" y="-25" width="505" height="328" filterUnits="userSpaceOnUse" color-interpolation-filters="sRGB">
<feFlood flood-opacity="0" result="BackgroundImageFix"/>
<feGaussianBlur in="BackgroundImage" stdDeviation="12.5"/>
<feComposite in2="SourceAlpha" operator="in" result="effect1_backgroundBlur_5_178"/>
<feBlend mode="normal" in="SourceGraphic" in2="effect1_backgroundBlur_5_178" result="shape"/>
</filter>
<linearGradient id="paint0_linear_5_178" x1="0" y1="0" x2="455" y2="278" gradientUnits="userSpaceOnUse">
<stop stop-color="white" stop-opacity="0.5"/>
<stop offset="1" stop-color="white" stop-opacity="0"/>
</linearGradient>
<linearGradient id="paint1_linear_5_178" x1="227.5" y1="0" x2="227.5" y2="278" gradientUnits="userSpaceOnUse">
<stop stop-color="white" stop-opacity="0"/>
<stop offset="1" stop-color="white" stop-opacity="0.5"/>
</linearGradient>
</defs>
</svg>
